<svg xmlns="http://www.w3.org/2000/svg" xmlns:xlink="http://www.w3.org/1999/xlink" width="40" zoomAndPan="magnify" viewBox="0 0 30 30.000001" height="40" preserveAspectRatio="xMidYMid meet" version="1.0"><defs><clipPath id="a390d7420a"><path d="M 0.484375 0 L 29.515625 0 L 29.515625 29.03125 L 0.484375 29.03125 Z M 0.484375 0 " clip-rule="nonzero"/></clipPath><clipPath id="33464b2e2e"><path d="M 15.722656 0.738281 L 29.496094 0.738281 L 29.496094 28.285156 L 15.722656 28.285156 Z M 15.722656 0.738281 " clip-rule="nonzero"/></clipPath><clipPath id="37d84e76a2"><path d="M 15.722656 28.285156 L 15.722656 0.738281 C 23.332031 0.738281 29.496094 6.90625 29.496094 14.511719 C 29.496094 22.121094 23.332031 28.285156 15.722656 28.285156 Z M 15.722656 28.285156 " clip-rule="nonzero"/></clipPath><clipPath id="90f7a16d5f"><path d="M 15.707031 0.742188 L 29.496094 0.742188 L 29.496094 28.28125 L 15.707031 28.28125 Z M 15.707031 0.742188 " clip-rule="nonzero"/></clipPath><clipPath id="947b45abff"><path d="M 15.730469 28.277344 L 15.730469 0.742188 C 23.332031 0.742188 29.496094 6.90625 29.496094 14.511719 C 29.496094 22.113281 23.332031 28.277344 15.730469 28.277344 Z M 15.730469 28.277344 " clip-rule="nonzero"/></clipPath><clipPath id="1706efd8dc"><path d="M 0.484375 0.734375 L 14.261719 0.734375 L 14.261719 28.285156 L 0.484375 28.285156 Z M 0.484375 0.734375 " clip-rule="nonzero"/></clipPath><clipPath id="c1e1fb02dd"><path d="M 14.261719 0.734375 L 14.261719 28.285156 C 6.652344 28.285156 0.484375 22.117188 0.484375 14.507812 C 0.484375 6.902344 6.652344 0.734375 14.261719 0.734375 Z M 14.261719 0.734375 " clip-rule="nonzero"/></clipPath><clipPath id="203bc10a01"><path d="M 0.484375 0.742188 L 14.277344 0.742188 L 14.277344 28.277344 L 0.484375 28.277344 Z M 0.484375 0.742188 " clip-rule="nonzero"/></clipPath><clipPath id="0ab13311e4"><path d="M 14.253906 0.742188 L 14.253906 28.277344 C 6.648438 28.277344 0.484375 22.113281 0.484375 14.511719 C 0.484375 6.90625 6.648438 0.742188 14.253906 0.742188 Z M 14.253906 0.742188 " clip-rule="nonzero"/></clipPath><clipPath id="4803855236"><path d="M 0.484375 1 L 18 1 L 18 29.03125 L 0.484375 29.03125 Z M 0.484375 1 " clip-rule="nonzero"/></clipPath><clipPath id="e79a12119a"><path d="M 2 0 L 12 0 L 12 29.03125 L 2 29.03125 Z M 2 0 " clip-rule="nonzero"/></clipPath><clipPath id="61af8b0993"><path d="M 12 1 L 29.515625 1 L 29.515625 29.03125 L 12 29.03125 Z M 12 1 " clip-rule="nonzero"/></clipPath></defs><g clip-path="url(#a390d7420a)"><path fill="#ffffff" d="M 0.484375 0 L 29.515625 0 L 29.515625 29.03125 L 0.484375 29.03125 Z M 0.484375 0 " fill-opacity="1" fill-rule="nonzero"/><path fill="#5271ff" d="M 0.484375 0 L 29.515625 0 L 29.515625 29.03125 L 0.484375 29.03125 Z M 0.484375 0 " fill-opacity="1" fill-rule="nonzero"/></g><g clip-path="url(#33464b2e2e)"><g clip-path="url(#37d84e76a2)"><path fill="#5271ff" d="M 29.496094 0.738281 L 29.496094 28.285156 L 15.722656 28.285156 L 15.722656 0.738281 Z M 29.496094 0.738281 " fill-opacity="1" fill-rule="nonzero"/></g></g><g clip-path="url(#90f7a16d5f)"><g clip-path="url(#947b45abff)"><path stroke-linecap="butt" transform="matrix(0, 0.725806, -0.725806, 0, 29.497475, 0.743105)" fill="none" stroke-linejoin="miter" d="M 37.936063 18.967875 L -0.00126361 18.967875 C -0.00126361 8.494611 8.491445 0.00190237 18.970091 0.00190237 C 29.443355 0.00190237 37.936063 8.494611 37.936063 18.967875 Z M 37.936063 18.967875 " stroke="#ffffff" stroke-width="2" stroke-opacity="1" stroke-miterlimit="4"/></g></g><g clip-path="url(#1706efd8dc)"><g clip-path="url(#c1e1fb02dd)"><path fill="#5271ff" d="M 0.484375 28.285156 L 0.484375 0.734375 L 14.261719 0.734375 L 14.261719 28.285156 Z M 0.484375 28.285156 " fill-opacity="1" fill-rule="nonzero"/></g></g><g clip-path="url(#203bc10a01)"><g clip-path="url(#0ab13311e4)"><path stroke-linecap="butt" transform="matrix(0, -0.725806, 0.725806, 0, 0.486159, 28.278387)" fill="none" stroke-linejoin="miter" d="M 37.938764 18.968897 L 0.00143707 18.968897 C 0.00143707 8.490251 8.494145 -0.00245774 18.967409 -0.00245774 C 29.446055 -0.00245774 37.938764 8.490251 37.938764 18.968897 Z M 37.938764 18.968897 " stroke="#ffffff" stroke-width="2" stroke-opacity="1" stroke-miterlimit="4"/></g></g><g clip-path="url(#4803855236)"><path stroke-linecap="butt" transform="matrix(-0.281182, -0.669128, 0.669128, -0.281182, 13.466149, 28.291657)" fill="none" stroke-linejoin="miter" d="M -0.00165901 0.499406 L 33.828154 0.500302 " stroke="#ffffff" stroke-width="1" stroke-opacity="1" stroke-miterlimit="4"/></g><path stroke-linecap="butt" transform="matrix(0, -0.725806, 0.725806, 0, 3.604815, 23.325871)" fill="none" stroke-linejoin="miter" d="M 0.0022758 0.501421 L 24.290991 0.501421 " stroke="#ffffff" stroke-width="1" stroke-opacity="1" stroke-miterlimit="4"/><g clip-path="url(#e79a12119a)"><path stroke-linecap="butt" transform="matrix(-0.00100555, -0.725806, 0.725806, -0.00100555, 6.764441, 25.900708)" fill="none" stroke-linejoin="miter" d="M 0.0024326 0.502156 L 31.379198 0.502571 " stroke="#ffffff" stroke-width="1" stroke-opacity="1" stroke-miterlimit="4"/></g><path stroke-linecap="butt" transform="matrix(0, -0.725806, 0.725806, 0, 25.645657, 23.325871)" fill="none" stroke-linejoin="miter" d="M 0.0022758 0.498969 L 24.290991 0.498969 " stroke="#ffffff" stroke-width="1" stroke-opacity="1" stroke-miterlimit="4"/><path stroke-linecap="butt" transform="matrix(-0.287239, 0.66655, -0.66655, -0.287239, 23.038586, 2.946726)" fill="none" stroke-linejoin="miter" d="M 0.001062 0.496961 L 23.016397 0.500515 " stroke="#ffffff" stroke-width="1" stroke-opacity="1" stroke-miterlimit="4"/><g clip-path="url(#61af8b0993)"><path stroke-linecap="butt" transform="matrix(-0.281261, 0.669094, -0.669094, -0.281261, 26.097312, 5.710473)" fill="none" stroke-linejoin="miter" d="M 0.00115608 0.501078 L 33.529178 0.50041 " stroke="#ffffff" stroke-width="1" stroke-opacity="1" stroke-miterlimit="4"/></g><path stroke-linecap="butt" transform="matrix(-0.281261, -0.669094, 0.669094, -0.281261, 13.518174, 18.340909)" fill="none" stroke-linejoin="miter" d="M 0.0019648 0.499094 L 23.107582 0.503013 " stroke="#ffffff" stroke-width="1" stroke-opacity="1" stroke-miterlimit="4"/><path stroke-linecap="butt" transform="matrix(0, -0.725806, 0.725806, 0, 22.52658, 25.900552)" fill="none" stroke-linejoin="miter" d="M -0.00246868 0.501573 L 31.37965 0.501573 " stroke="#ffffff" stroke-width="1" stroke-opacity="1" stroke-miterlimit="4"/></svg>